# AST/ASF file generated using VICON BodyLanguage
# -----------------------------------------------
:version 1.10
:name VICON
:units
  mass 1.0
  length 0.45
  angle deg
:documentation
   .ast/.asf automatically generated from VICON data using
   VICON BodyBuilder and BodyLanguage model FoxedUp or BRILLIANT.MOD
:root
   order TX TY TZ RX RY RZ
   axis XYZ
   position 0 0 0  
   orientation 0 0 0 
:bonedata
  begin
     id 1 
     name lhipjoint
     direction 0.671379 -0.66392 0.329334 
     length 2.38647 
     axis 0 0 0  XYZ
  end
  begin
     id 2 
     name lfemur
     direction 0.34202 -0.939693 0  
     length 6.48179  
     axis 0 0 20  XYZ
    dof rx ry rz
    limits (-160.0 20.0)
           (-70.0 70.0)
           (-60.0 70.0)
  end
  begin
     id 3 
     name ltibia
     direction 0.34202 -0.939693 0   
     length 6.86524   
     axis 0 0 20   XYZ
    dof rx
    limits (-10.0 170.0)
  end
  begin
     id 4 
     name lfoot
     direction 0.204886 -0.562919 0.800715   
     length 1.73031   
     axis -90 7.62852e-016 20   XYZ
    dof rx rz
    limits (-45.0 90.0)
           (-70.0 20.0)
  end
  begin
     id 5 
     name ltoes
     direction 1.53548e-011 -4.21841e-011 1   
     length 0.828161   
     axis -90 7.62852e-016 20   XYZ
    dof rx
    limits (-90.0 20.0)
  end
  begin
     id 6 
     name rhipjoint
     direction -0.662732 -0.670855 0.332775   
     length 2.3618  
     axis 0 0 0  XYZ 
  end
  begin
     id 7 
     name rfemur
     direction -0.34202 -0.939693 0   
     length 6.3025   
     axis 0 0 -20   XYZ
    dof rx ry rz
    limits (-160.0 20.0)
           (-70.0 70.0)
           (-70.0 60.0)
  end
  begin
     id 8 
     name rtibia
     direction -0.34202 -0.939693 0   
     length 6.8732   
     axis 0 0 -20   XYZ
    dof rx
    limits (-10.0 170.0)
 end
 begin
     id 9 
     name rfoot
     direction -0.173856 -0.477665 0.861168   
     length 1.54784  
     axis -90 -7.62852e-016 -20   XYZ
    dof rx rz
    limits (-45.0 90.0)
           (-20.0 70.0)
  end
  begin
     id 10 
     name rtoes
     direction -1.53562e-011 -4.21802e-011 1   
     length 0.759618   
     axis -90 -7.62852e-016 -20   XYZ
    dof rx
    limits (-90.0 20.0)
  end
  begin
     id 11 
     name lowerback
     direction -0.0278357 0.999497 -0.0151789   
     length 1.97203   
     axis 0 0 0   XYZ
    dof rx ry rz
    limits (-20.0 45.0)
           (-30.0 30.0)
           (-30.0 30.0)
  end
  begin
     id 12 
     name upperback
     direction -0.00360622 0.997542 0.0699804   
     length 1.94709   
     axis 0 0 0   XYZ
    dof rx ry rz
    limits (-20.0 45.0)
           (-30.0 30.0)
           (-30.0 30.0)
  end
  begin
     id 13 
     name thorax
     direction 0.00907706 0.997048 0.0762461   
     length 1.95722   
     axis 0 0 0   XYZ
    dof rx ry rz
    limits (-20.0 45.0)
           (-30.0 30.0)
           (-30.0 30.0)
  end
  begin
     id 14 
     name lowerneck
     direction -0.0481835 0.99872 -0.0153927   
     length 1.63078   
     axis 0 0 0   XYZ
    dof rx ry rz
    limits (-20.0 45.0)
           (-30.0 30.0)
           (-30.0 30.0)
  end
  begin
     id 15 
     name upperneck
     direction 0.0859716 0.979226 -0.183644   
     length 1.62591   
     axis 0 0 0   XYZ
    dof rx ry rz
    limits (-20.0 45.0)
           (-30.0 30.0)
           (-30.0 30.0)
  end
  begin
     id 16
     name head
     direction 0.0324821 0.997629 -0.0606773  
     length 1.64811  
     axis 0 0 0   XYZ
    dof rx ry rz
    limits (-20.0 45.0)
           (-30.0 30.0)
           (-30.0 30.0)
  end
  begin
     id 17 
     name lclavicle
     direction 0.939609 0.311019 0.142835  
     length 3.70647  
     axis 0 0 0   XYZ
    dof ry rz
    limits (-20.0 10.0)
           (0.0 20.0)
  end
  begin
     id 18 
     name lhumerus
     direction 1 -4.48963e-011 -1.59838e-027   
     length 4.59207   
     axis 180 -30 -90   XYZ
    dof rx ry rz
    limits (-60.0 90.0)
           (-90.0 90.0)
           (-90.0 90.0)
  end
  begin
     id 19
     name lradius
     direction 1 -4.48957e-011 -1.3483e-026   
     length 2.98109   
     axis 180 -30 -90   XYZ
    dof rx
    limits (-10.0 170.0)
  end
  begin
     id 20
     name lwrist
     direction 1 -4.48954e-011 -3.11579e-026   
     length 1.49055   
     axis 2.00652e-014 90 90   XYZ
    dof ry
    limits (-180.0 0.0)
 end
  begin
     id 21 
     name lhand
     direction 1 -4.4911e-011 -6.23158e-026   
     length 0.480203   
     axis 3.97628e-014 90 90   XYZ
    dof rx rz
    limits (-90.0 90.0)
           (-45.0 45.0)
  end
  begin
     id 22 
     name lfingers
     direction 1 -4.48893e-011 -1.24632e-025   
     length 0.387152   
     axis 7.95256e-014 90 90   XYZ
    dof rx
    limits (0.0 90.0)
  end
  begin
     id 23
     name lthumb
     direction 0.707107 -6.35013e-011 0.707107   
     length 0.555875   
     axis -90 45 2.85299e-015   XYZ
    dof rx rz
    limits (-45.0 45.0)
           (-45.0 45.0)
  end
  begin
     id 24 
     name rclavicle
     direction -0.950396 0.30392 0.0661859   
     length 3.70894  
     axis 0 0 0   XYZ 
    dof ry rz
    limits (-10.0 20.0)
           (-20.0 0.0)
  end
  begin
     id 25 
     name rhumerus
     direction -1 -4.48957e-011 -2.96677e-027  
     length 4.76508   
     axis 180 30 90   XYZ
    dof rx ry rz
    limits (-90.0 60.0)
           (-90.0 90.0)
           (-90.0 90.0)
  end
  begin
     id 26 
     name rradius
     direction -1 -4.48974e-011 -1.44501e-026   
     length 2.78902   
     axis 180 30 90   XYZ
    dof rx
    limits (-10.0 170.0)
  end
  begin
     id 27 
     name rwrist
     direction -1 -4.48978e-011 -3.11579e-026   
     length 1.39451   
     axis 2.00652e-014 -90 -90   XYZ
    dof ry
    limits (-180.0 0.0)
  end
  begin
     id 28
     name rhand
     direction -1 -4.48956e-011 -6.23158e-026   
     length 0.721303   
     axis 3.97628e-014 -90 -90   XYZ
    dof rx rz
    limits (-90.0 90.0)
           (-45.0 45.0)
  end
  begin
     id 29
     name rfingers
     direction -1 -4.4899e-011 -1.24632e-025   
     length 0.581533   
     axis 7.95256e-014 -90 -90   XYZ
    dof rx
    limits (0.0 90.0)
  end
  begin
     id 30
     name rthumb
     direction -0.707107 -6.34911e-011 0.707107   
     length 0.834968   
     axis -90 -45 -2.85299e-015   XYZ
    dof rx rz
    limits (-45.0 45.0)
           (-45.0 45.0)
  end
:hierarchy
  begin
    root lhipjoint rhipjoint lowerback
    lhipjoint lfemur
    lfemur ltibia
    ltibia lfoot
    lfoot ltoes
    rhipjoint rfemur
    rfemur rtibia
    rtibia rfoot
    rfoot rtoes
    lowerback upperback
    upperback thorax
    thorax lowerneck lclavicle rclavicle
    lowerneck upperneck
    upperneck head
    lclavicle lhumerus
    lhumerus lradius
    lradius lwrist
    lwrist lhand lthumb
    lhand lfingers
    rclavicle rhumerus
    rhumerus rradius
    rradius rwrist
    rwrist rhand rthumb
    rhand rfingers
  end

#!OML:ASF I:\salsa\salsa 7_09\Patient 1\Session 1\dancerfemale.ASF
:FULLY-SPECIFIED
:DEGREES
1271
root -0.0683821 15.5207 -4.39919 -612.249 -73.4774 252.924
lowerback 7.70101 5.0442 1.94807
upperback -6.56355 7.44984 5.43047
thorax -11.9615 3.61543 3.48914
lowerneck -6.38731 -0.441124 -1.19967
upperneck 18.324 -1.86415 6.08011
head 6.68792 -0.62125 1.995
rclavicle 2.08724e-015 7.15625e-015
rhumerus -73.3822 18.2692 -93.1459
rradius 119.114
rwrist -51.4138
rhand 27.7362 386.208
rfingers 7.12502
rthumb 51.6607 5.90279
lclavicle 2.08724e-015 7.15625e-015
lhumerus -28.4399 40.0108 38.8397
lradius 73.1617
lwrist -26.1094
lhand -33.3053 62.9679
lfingers 7.12502
lthumb -6.50897 -452.848
rfemur -3.70205 -10.6899 39.4557
rtibia 20.9568
rfoot -21.4639 18.2436
rtoes -10.8427
lfemur -46.5457 8.4507 -1.96357
ltibia 59.7661
lfoot -15.8539 9.00975
ltoes -29.2615
1272
root -0.21247 15.5231 -4.3106 -611.265 -74.3059 251.785
lowerback 7.47114 5.05394 1.52886
upperback -6.63176 7.38596 5.21531
thorax -11.9167 3.61373 3.51298
lowerneck -6.30502 -0.30158 -1.19947
upperneck 18.3437 -1.68232 6.12595
head 6.67251 -0.531596 2.02383
rclavicle -4.17448e-014 -4.69132e-014
rhumerus -73.854 18.2171 -93.1783
rradius 119.027
rwrist -51.868
rhand 28.1635 386.933
rfingers 7.12502
rthumb 52.0485 6.85632
lclavicle -4.17448e-014 -4.69132e-014
lhumerus -26.8361 40.631 39.2364
lradius 73.1807
lwrist -26.4368
lhand -32.5529 62.5647
lfingers 7.12502
lthumb -5.78258 -452.466
rfemur -3.14587 -8.27962 38.4743
rtibia 21.2636
rfoot -22.4595 14.9064
rtoes -13.6973
lfemur -44.9333 7.08721 -2.42021
ltibia 58.8102
lfoot -14.8866 8.78334
ltoes -28.6703
1273
root -0.372366 15.5364 -4.21004 -607.503 -74.9055 247.935
lowerback 6.85886 5.26528 1.228
upperback -6.68353 7.58222 4.94098
thorax -11.613 3.7263 3.39199
lowerneck -6.40485 -0.172544 -1.46435
upperneck 18.6506 -1.55299 6.43605
head 6.78589 -0.459635 2.18149
rclavicle -9.34288e-015 2.78299e-014
rhumerus -74.3258 18.1326 -93.1557
rradius 119.12
rwrist -52.2496
rhand 27.8793 386.739
rfingers 7.12502
rthumb 51.7906 6.5095
lclavicle -9.34288e-015 2.78299e-014
lhumerus -25.3261 41.1962 39.7168
lradius 73.3576
lwrist -26.5367
lhand -32.8071 63.309
lfingers 7.12502
lthumb -6.02802 -453.203
rfemur -2.64933 -5.66475 37.3974
rtibia 21.7766
rfoot -22.3147 12.0104
rtoes -18.0916
lfemur -42.7997 6.30718 -3.03168
ltibia 57.6563
lfoot -14.1835 7.66613
ltoes -21.303
1274
root -0.521043 15.5476 -4.10622 -603.196 -75.4837 243.598
lowerback 6.35039 5.45751 0.976971
upperback -6.83588 7.76245 4.55701
thorax -11.4618 3.81948 3.12177
lowerneck -6.38035 -0.0255088 -1.39404
upperneck 18.9603 -1.38395 6.41434
head 6.8733 -0.375241 2.17873
rclavicle -2.70347e-014 1.66979e-014
rhumerus -74.8368 17.9482 -93.2288
rradius 119.333
rwrist -52.42
rhand 26.6633 385.462
rfingers 7.12502
rthumb 50.6837 4.60584
lclavicle -2.70347e-014 1.66979e-014
lhumerus -23.9224 41.6679 40.1695
lradius 73.6424
lwrist -26.3885
lhand -33.1043 63.7726
lfingers 7.12502
lthumb -6.31494 -453.658
rfemur -2.37487 -3.03311 36.3346
rtibia 22.3884
rfoot -23.7212 9.04917
rtoes -22.7209
lfemur -40.7395 5.88704 -3.9948
ltibia 56.2627
lfoot -16.3539 4.79135
ltoes -20.6026
1275
root -0.661213 15.5685 -3.9878 -600.607 -76.2781 240.654
lowerback 6.42316 5.45642 1.00142
upperback -6.98067 7.73471 4.10009
thorax -11.589 3.78038 2.60877
lowerneck -6.19583 0.138177 -1.30545
upperneck 19.2085 -1.1899 6.38343
head 6.91157 -0.282833 2.17079
rclavicle 1.78906e-014 1.59028e-014
rhumerus -75.2483 17.7673 -93.2227
rradius 119.458
rwrist -52.2672
rhand 27.2047 385.704
rfingers 7.12502
rthumb 51.1772 5.12155
lclavicle 1.78906e-014 1.59028e-014
lhumerus -22.7136 41.7822 40.6261
lradius 73.8923
lwrist -25.2974
lhand -34.3059 63.7935
lfingers 7.12502
lthumb -7.47482 -453.641
rfemur -1.90593 -1.02763 35.1759
rtibia 23.1802
rfoot -23.9647 6.04026
rtoes -26.0002
lfemur -38.5749 5.49502 -5.38529
ltibia 54.7316
lfoot -17.5975 2.62954
ltoes -15.8759
1276
root -0.787622 15.6008 -3.86866 -596.979 -77.2244 236.807
lowerback 6.53389 5.45481 0.845188
upperback -7.18649 7.6801 3.55846
thorax -11.8214 3.73742 2.1024
lowerneck -5.96862 0.292761 -1.23586
upperneck 19.3955 -0.988808 6.29471
head 6.9223 -0.194109 2.14683
rclavicle -6.30147e-014 -4.81059e-014
rhumerus -75.5678 17.5797 -93.1403
rradius 119.489
rwrist -52.0326
rhand 27.9667 386.129
rfingers 7.12502
rthumb 51.87 5.94618
lclavicle -6.30147e-014 -4.81059e-014
lhumerus -21.7942 42.0769 41.0467
lradius 74.3746
lwrist -24.6139
lhand -35.4012 64.0395
lfingers 7.12502
lthumb -8.53195 -453.847
rfemur -1.75918 1.01682 33.8073
rtibia 24.1744
rfoot -24.2122 3.04495
rtoes -26.9547
lfemur -36.7211 5.62389 -7.32177
ltibia 53.0478
lfoot -17.7986 0.879709
ltoes -7.24143
1277
root -0.897879 15.6277 -3.74651 -592.102 -78.4257 231.648
lowerback 6.80798 5.44646 0.608948
upperback -7.34796 7.58396 2.73476
thorax -12.0689 3.66638 1.32885
lowerneck -6.07585 0.411479 -1.515
upperneck 19.8264 -0.93828 6.85168
head 7.07962 -0.143393 2.38494
rclavicle -3.26007e-014 1.07344e-014
rhumerus -75.961 17.0084 -93.2055
rradius 119.568
rwrist -51.6701
rhand 28.9589 386.578
rfingers 7.12502
rthumb 52.7686 6.94025
lclavicle -3.26007e-014 1.07344e-014
lhumerus -20.7536 42.5054 41.5162
lradius 74.9755
lwrist -24.2715
lhand -36.0026 64.6136
lfingers 7.12502
lthumb -9.11233 -454.397
rfemur -1.99346 2.69233 32.0344
rtibia 25.8657
rfoot -24.6282 0.381343
rtoes -29.0175
lfemur -35.0462 5.8577 -9.83225
ltibia 51.3457
lfoot -19.137 -0.247077
ltoes -6.9448
1278
root -0.992244 15.6825 -3.62286 -584.479 -79.7974 223.509
lowerback 7.29337 5.45086 0.0496341
upperback -7.35833 7.44514 1.75103
thorax -12.2961 3.59454 0.551529
lowerneck -6.03566 0.53994 -1.43497
upperneck 19.9156 -0.805908 6.97112
head 7.09547 -0.0662031 2.4215
rclavicle -4.44284e-014 -1.43125e-014
rhumerus -76.2241 16.4808 -93.3987
rradius 119.606
rwrist -51.4484
rhand 29.6271 386.731
rfingers 7.12502
rthumb 53.3714 7.47711
lclavicle -4.44284e-014 -1.43125e-014
lhumerus -19.8769 43.0427 41.9404
lradius 75.6662
lwrist -23.9544
lhand -36.2776 65.3421
lfingers 7.12502
lthumb -9.37764 -455.113
rfemur -2.50329 3.55901 29.6258
rtibia 28.3697
rfoot -24.9416 -1.27715
rtoes -32.6112
lfemur -33.073 5.934 -12.7166
ltibia 49.5148
lfoot -19.6576 -0.215747
ltoes -6.6848
1279
root -1.07079 15.6965 -3.50662 -571.658 -81.1312 209.968
lowerback 7.30576 5.51797 -1.20484
upperback -6.79141 7.28857 0.790619
thorax -11.6771 3.59217 0.260264
lowerneck -6.48118 0.672782 -1.85151
upperneck 19.8059 -0.631459 7.41746
head 7.13052 0.0367743 2.65337
rclavicle -3.30976e-014 -9.54166e-015
rhumerus -75.4729 16.3133 -93.219
rradius 119.45
rwrist -51.4413
rhand 29.4669 386.622
rfingers 7.12502
rthumb 53.227 7.27418
lclavicle -3.30976e-014 -9.54166e-015
lhumerus -18.5303 44.4773 43.1735
lradius 76.3214
lwrist -24.2625
lhand -36.5945 65.5186
lfingers 7.12502
lthumb -9.68339 -455.276
rfemur -3.50659 3.89397 26.4768
rtibia 31.8428
rfoot -25.6443 -1.59242
rtoes -31.2571
lfemur -31.1931 6.02665 -16.0024
ltibia 47.9539
lfoot -19.6403 0.120703
ltoes -5.9599
1280
root -1.13582 15.7008 -3.3977 -552.722 -82.1873 190.472
lowerback 7.19907 5.55292 -2.80777
upperback -6.25801 7.0289 -0.379026
thorax -11.0517 3.54421 -0.0259984
lowerneck -6.86148 0.800631 -2.39025
upperneck 19.5526 -0.44793 7.95827
head 7.10455 0.141868 2.93569
rclavicle -6.13251e-014 -2.14687e-014
rhumerus -74.8441 15.9 -93.1376
rradius 119.364
rwrist -51.1825
rhand 29.2382 386.47
rfingers 7.12502
rthumb 53.0208 6.99097
lclavicle -6.13251e-014 -2.14687e-014
lhumerus -17.0649 45.8266 44.5639
lradius 76.7384
lwrist -24.9604
lhand -37.0592 65.4766
lfingers 7.12502
lthumb -10.1318 -455.213
rfemur -4.99752 3.43231 22.7205
rtibia 35.638
rfoot -25.1338 -1.31224
rtoes -29.4154
lfemur -29.6725 6.07425 -19.7151
ltibia 46.4649
lfoot -19.4136 0.339702
ltoes -4.9674
